<?xml version="1.0" encoding="UTF-8"?>
<svg id="SINGLETON_ID" xmlns="http://www.w3.org/2000/svg" viewBox="0 0 223.45 132.61">
  <defs>
    <style>
      .cls-1 {
        fill-rule: evenodd;
      }

      .cls-1, .cls-2 {
        fill: #fff;
      }
    </style>
  </defs>
  <g>
    <path class="cls-1" d="M50.13,75.29h1.77v.06s-.72.38-.72,1.5v7.58c0,1.24.71,1.5.71,1.5v.06s-1.77,0-1.77,0h-1.45v-.06s.75-.2.75-1.5v-3.79h-3.88v3.79c0,1.25.71,1.5.71,1.5v.06s-1.47,0-1.47,0h-1.74v-.06s.75-.27.75-1.5v-7.58c0-1.05-.75-1.49-.75-1.49v-.06s1.74,0,1.74,0h1.48v.06s-.71.42-.71,1.49v2.88h3.88v-2.88c0-1.1-.75-1.5-.75-1.5v-.06s1.45,0,1.45,0Z"/>
    <g>
      <polygon class="cls-2" points="217.06 126.85 217.96 126.85 217.96 130.84 218.63 130.84 218.63 126.85 219.53 126.85 219.53 126.25 217.06 126.25 217.06 126.85"/>
      <polygon class="cls-2" points="222.51 126.25 221.84 129.25 221.14 126.25 220.21 126.25 220.21 130.84 220.85 130.84 220.85 127.56 221.59 130.84 222.06 130.84 222.81 127.56 222.81 130.84 223.45 130.84 223.45 126.25 222.51 126.25"/>
    </g>
    <path class="cls-2" d="M33.62,77.62h.05s.39-1.45,1.81-1.45h1.06s0,7.31,0,8.36-.77,1.4-.77,1.4v.06h3.34v-.06s-.73-.28-.73-1.4,0-8.36,0-8.36h1.1c1.47,0,1.74,1.45,1.74,1.45h.07v-2.32h-7.66v2.32Z"/>
    <path class="cls-2" d="M58.79,85.08h-2.39v-4.44h1.5c.76,0,1,.81,1,.81h.07s0-2.37,0-2.37h-.07s-.24.64-1,.64h-1.51v-3.56h2.17c1.38,0,1.85,1.24,1.85,1.24h.06v-2.11h-6.65v.06s.77.25.77,1.56,0,6.6,0,7.66-.77,1.35-.77,1.35v.06h6.87v-2.06h-.07s-.51,1.15-1.84,1.15Z"/>
    <g>
      <path class="cls-2" d="M59.97,94.08s3.38.86,3.38,4.21v21.91s-12.22-26.14-12.22-26.14l-.07-.16h-8.07v.17s2.68.85,2.68,4.21v25.78c0,6.32-3.27,6.76-3.27,6.76v.19h9.45v-.19s-3.12-.4-3.12-6.77v-20.86l13.18,27.74.03.07h4.27v-32.72c0-3.35,2.94-4.21,2.94-4.21v-.17s-9.19,0-9.19,0v.17Z"/>
      <path class="cls-2" d="M207.46,94.08s3.38.86,3.38,4.21v21.91s-12.22-26.14-12.22-26.14l-.07-.16h-8.07v.17s2.68.85,2.68,4.21v25.78c0,6.32-3.27,6.76-3.27,6.76v.19h9.45v-.19s-3.12-.4-3.12-6.77v-20.86l13.18,27.74.03.07h4.27v-32.72c0-3.35,2.94-4.21,2.94-4.21v-.17s-9.19,0-9.19,0v.17Z"/>
      <path class="cls-2" d="M112.92,127.91h-5.25v-29.61c0-3.35,2.62-4.21,2.62-4.21v-.17h-11.08v.17s2.78.85,2.78,4.21v28.11c0,3.99-2.77,4.42-2.77,4.42v.19h19.2v-8.74h-.18s-1.04,5.63-5.31,5.63Z"/>
      <path class="cls-2" d="M83.7,109.87l.02.19s5.05.37,5.05,6.48v10.21s-.62,2.77-4.49,2.77c-1.84,0-6.13-1.62-6.13-16.63,0-10.43,3.1-17.72,7.55-17.72,5.09,0,8.01,8.77,8.01,8.77h.2v-11.01h-.12s-1.36,2.27-3.97,1.16c-1.04-.44-2.47-1.06-4.57-1.06-5.28,0-8.53,3.63-10.33,6.67-2.14,3.61-3.41,8.48-3.41,13.01,0,5.8,1.22,19.3,12.56,19.3,2.44,0,4.05-.56,5.22-.98,3.35-1.18,5.14,1.58,5.14,1.58h.15s0-12.56,0-18.01c0-3.78,1.84-4.55,1.84-4.55v-.19h-12.69Z"/>
      <path class="cls-2" d="M15.17,103.26c-.39-.35-.76-.68-1.11-1-5.47-5-8.56-8-8.56-11.33,0-3.99,2.51-6.47,6.55-6.47,8.03,0,10.05,12,10.07,12.12h.15v-15.32h-.11c-2.1,2.22-5.15,1.99-7.55,1.36-.92-.24-1.99-.36-3.18-.36-5.63,0-11.45,4.16-11.45,11.12,0,5.6,4.84,10.16,8.73,13.81.51.48,1,.94,1.46,1.39.28.27.56.55.85.82,3.88,3.74,8.29,7.97,8.29,11.69,0,3.47-1.86,8.64-6.97,8.64-8.76,0-11.21-13.61-11.23-13.75h-.22v16.64h.23c1.38-3.16,3.2-2.74,5.66-1.83,1.5.55,3.38,1.24,5.82,1.24,7.04,0,12.77-5.85,12.77-13.05s-6.15-12.04-10.21-15.7Z"/>
      <path class="cls-2" d="M28.29,94.08s2.72.85,2.72,4.21v27.53c0,4.34-2.72,5.01-2.72,5.01v.19h10.67v-.19s-2.49-.71-2.49-5.01v-27.53c0-3.35,2.49-4.21,2.49-4.21v-.17h-10.67v.18Z"/>
      <path class="cls-2" d="M178.7,92.98c-2.66,0-5.13,1.28-6.97,3.61-2.22,2.8-3.39,7.02-3.39,12.21,0,3.84.92,7.61,2.53,10.34,1.89,3.2,4.59,4.89,7.83,4.89,6.8,0,10.35-7.66,10.35-15.23,0-11.68-5.58-15.82-10.35-15.82ZM183.69,109.73c0,7.86-1.82,12.37-4.99,12.37s-4.73-4.33-4.73-12.51.35-14.56,4.73-14.56c4.16,0,4.99,5.62,4.99,14.7Z"/>
      <path class="cls-2" d="M178.7,128.98c-2.95,0-5.66-.87-7.99-2.51v4.55h15.7v-4.39c-2.27,1.54-4.88,2.36-7.71,2.36Z"/>
      <path class="cls-2" d="M142.7,102.24h.31s.84-5.37,5.33-5.37l3.49.02c0,1.97-.02,26.14-.02,29.6s-2.79,4.29-2.79,4.29v.25h11.22v-.26s-2.61-.58-2.61-4.28,0-27.65,0-29.61h3.31c4.07,0,5.48,5.37,5.48,5.37h.31v-8.33h-24.03v8.33Z"/>
      <path class="cls-2" d="M141.51,122.28c-.44,2.73-1.82,5.62-5.64,5.62h-7.41v-15h5.9c2.82,0,3.22,2.51,3.22,2.51h.17s0-7.56,0-7.56h-.17s-.46,2.09-3.2,2.09h-5.91v-13.08h6.49c4.45,0,5.07,5.37,5.07,5.37h.33v-8.33h-20.35v.17s2.79.71,2.79,4.06v28.51c0,3.48-2.79,4.18-2.79,4.18v.19h21.71v-8.73h-.2Z"/>
    </g>
  </g>
  <g>
    <path class="cls-2" d="M108.34.92c23.21,0,42.1,18.89,42.1,42.1s-18.89,42.1-42.1,42.1-42.1-18.89-42.1-42.1S85.12.92,108.34.92M108.34,0c-23.76,0-43.02,19.26-43.02,43.02s19.26,43.02,43.02,43.02,43.02-19.26,43.02-43.02S132.1,0,108.34,0h0Z"/>
    <g>
      <g>
        <path class="cls-2" d="M76.99,22.22l-.57.94,4.64,2.8-.55.92-4.64-2.8-.56.93-.9-.54,1.68-2.8.9.54Z"/>
        <path class="cls-2" d="M83.75,22.27l-.72.81-4.86-4.28.72-.81,2.05,1.81.9-1.02-2.05-1.81.71-.81,4.86,4.28-.71.81-2.1-1.85-.9,1.02,2.1,1.84Z"/>
        <path class="cls-2" d="M86.43,12.42l-1.53,1.2,1.04,1.33,1.13-.89.58.74-1.13.89,1.08,1.38,1.52-1.2.64.82-2.37,1.86-3.99-5.1,2.37-1.86.65.82Z"/>
        <path class="cls-2" d="M93.05,9.2c-.37-.94.02-1.81,1-2.2.95-.38,1.88,0,2.29,1.04l-.98.39c-.21-.53-.58-.64-.95-.49s-.53.46-.39.82c.42,1.07,2.87.53,3.5,2.12.39.99.06,1.88-.99,2.3-1,.4-1.97.03-2.4-1.05l.99-.39c.23.57.64.65,1.04.5.38-.15.57-.49.41-.9-.41-1.04-2.93-.63-3.52-2.13Z"/>
        <path class="cls-2" d="M101.67,11.54l-1.05.24-1.44-6.3,1.05-.24,1.44,6.3Z"/>
        <path class="cls-2" d="M108.08,10.8l-1.01.06-1.76-3.67.24,3.77-1.07.07-.41-6.46,1.01-.06,1.76,3.73-.24-3.81,1.08-.07.41,6.45Z"/>
        <path class="cls-2" d="M114.69,8.19l-.18,1.39c-.14,1.09-.97,1.75-2.02,1.62-1.04-.13-1.67-.98-1.53-2.07l.37-2.88c.14-1.09.97-1.76,2-1.63,1.04.13,1.67.97,1.55,2.04l-1.06-.14c.07-.56-.2-.81-.61-.86-.42-.05-.74.13-.82.77l-.37,2.87c-.07.56.21.82.6.87.37.05.74-.11.82-.69l.06-.49-.71-.09.12-.94,1.77.23Z"/>
        <path class="cls-2" d="M119.52,12.8l-2.71-.85,1.94-6.18,1.03.32-1.63,5.19,1.67.53-.31.99Z"/>
        <path class="cls-2" d="M126.92,10.29l-1.72-.89-.77,1.5,1.28.66-.43.84-1.28-.66-.8,1.56,1.72.89-.47.92-2.68-1.38,2.96-5.75,2.68,1.38-.48.93Z"/>
        <path class="cls-2" d="M132.22,13.94l-.88-.66-3.26,4.34-.86-.64,3.26-4.34-.87-.66.63-.84,2.61,1.96-.63.84Z"/>
        <path class="cls-2" d="M131.88,18.5l2.12-1.98c.8-.75,1.87-.75,2.59.03s.67,1.84-.14,2.59l-2.12,1.98c-.8.75-1.87.73-2.59-.04s-.66-1.83.14-2.58ZM134.77,17.27l-2.18,2.04c-.43.4-.34.79-.09,1.06.24.26.64.4,1.07-.01l2.18-2.04c.43-.4.34-.79.08-1.07-.25-.27-.63-.39-1.07.02Z"/>
        <path class="cls-2" d="M136.58,27.51l-.54-.86,2.39-3.29-3.2,2-.57-.91,5.49-3.43.54.86-2.44,3.31,3.24-2.03.57.92-5.48,3.43Z"/>
      </g>
      <g>
        <path class="cls-2" d="M69.76,45.67l6.43-.72.19,1.69c.12,1.05-.49,1.87-1.75,2.01l-.95.11c-1.26.14-2.01-.52-2.13-1.57l-.07-.61-1.61.18-.12-1.08ZM75.28,46.14l-2.77.31.05.49c.05.44.29.84,1.01.76l.93-.1c.77-.09.88-.53.83-.96l-.05-.49Z"/>
        <path class="cls-2" d="M76.98,54.09l-.56-1.85-1.62.48.41,1.38-.91.27-.41-1.38-1.68.5.56,1.85-.99.3-.86-2.88,6.2-1.86.87,2.88-1,.3Z"/>
        <path class="cls-2" d="M73.14,59.04l5.76-2.94.78,1.52c.48.95.19,1.91-.94,2.49l-.76.39c-.77.39-1.42.33-1.91-.05l-1.34,1.71-.53-1.05,1.19-1.42-.23-.46-1.52.78-.49-.96ZM78.47,57.53l-2.4,1.23.23.44c.2.4.54.68,1.24.33l.74-.38c.65-.33.63-.78.43-1.18l-.23-.44Z"/>
        <path class="cls-2" d="M82.79,64.27l-1.1-1.45-1.35,1.02.8,1.06-.75.57-.8-1.06-2.22,1.68-.65-.86,5.16-3.9,1.74,2.31-.84.63Z"/>
        <path class="cls-2" d="M86.7,68.25l-1.41-1.33-1.16,1.23,1.05.99-.65.69-1.05-.99-1.2,1.27,1.41,1.33-.71.75-2.19-2.06,4.44-4.7,2.19,2.06-.72.76Z"/>
        <path class="cls-2" d="M89.62,74.81c-.6.91-1.65,1.15-2.53.57-.88-.58-1.07-1.63-.47-2.54l1.6-2.42c.61-.92,1.64-1.16,2.52-.58.88.58,1.08,1.63.47,2.55l-.19.28-.9-.59.21-.32c.32-.49.15-.85-.17-1.06-.31-.2-.7-.23-1.03.27l-1.64,2.49c-.32.49-.15.85.16,1.05.3.2.71.24,1.04-.26l.26-.39.9.59-.24.36Z"/>
        <path class="cls-2" d="M96.58,74.11l-1.01-.44-2.17,4.97-.98-.43,2.17-4.97-1-.44.42-.96,3,1.31-.42.96Z"/>
        <path class="cls-2" d="M100.32,80.83l-2.75-.7,1.59-6.27,1.05.27-1.34,5.26,1.7.43-.26,1Z"/>
        <path class="cls-2" d="M104.23,79.08l-1.09-4.27,1.11.11.65,2.84,1.2-2.66,1.11.11-1.91,3.97-.23,2.32-1.07-.1.23-2.32Z"/>
        <path class="cls-2" d="M112.83,74.9l1.61-.31c1.04-.2,1.84.12,2.06,1.28l.06.3c.13.69-.03,1.1-.4,1.35.47.11.8.4.94,1.15l.07.37c.22,1.13-.41,1.7-1.45,1.9l-1.67.32-1.22-6.35ZM115,77.31c.4-.08.65-.23.53-.85l-.05-.24c-.13-.65-.43-.69-.88-.61l-.52.1.33,1.71.59-.11ZM115.49,79.93c.48-.09.71-.26.59-.88l-.06-.33c-.11-.57-.39-.67-.83-.59l-.61.12.34,1.78.58-.11Z"/>
        <path class="cls-2" d="M122.78,77.48l-1.4.55.2,1.28-1.02.4-.93-6.59,1.08-.43,3.81,5.46-1.02.4-.72-1.08ZM121.21,77.1l1.05-.42-1.51-2.3.46,2.71Z"/>
        <path class="cls-2" d="M129.86,75.13l-2.42,1.48-3.38-5.52.92-.57,2.84,4.63,1.5-.92.54.88Z"/>
        <path class="cls-2" d="M133.58,70.57l-1.13.99.62,1.14-.82.72-3.1-5.89.87-.76,5.42,3.85-.82.72-1.04-.77ZM131.97,70.73l.85-.74-2.19-1.65,1.35,2.39Z"/>
        <path class="cls-2" d="M139.95,65.29l-.62.8-3.91-1.12,2.98,2.32-.66.85-5.1-3.97.62-.8,3.95,1.16-3.01-2.34.67-.85,5.1,3.97Z"/>
        <path class="cls-2" d="M142.01,58.1c.97.5,1.32,1.51.84,2.45-.48.94-1.5,1.24-2.47.75l-2.58-1.32c-.98-.5-1.33-1.5-.85-2.44.48-.94,1.5-1.25,2.49-.75l.3.15-.49.96-.34-.18c-.52-.27-.86-.06-1.03.29-.17.33-.15.73.38,1l2.66,1.36c.52.27.86.06,1.03-.28.16-.32.16-.73-.37-1.01l-.42-.21.49-.96.38.2Z"/>
        <path class="cls-2" d="M140.59,51.11l-.56,1.86,1.62.49.42-1.38.9.27-.42,1.38,1.68.51.56-1.85.99.3-.87,2.88-6.2-1.87.87-2.88,1,.3Z"/>
        <path class="cls-2" d="M142.48,45.05l2.47.28c1.3.15,1.9.95,1.78,2l-.2,1.75-6.43-.73.2-1.75c.12-1.05.88-1.7,2.18-1.56ZM141.32,46.84l-.06.56,4.38.5.06-.56c.05-.47-.1-.87-1.03-.98l-2.24-.25c-.64-.07-1.04.13-1.11.73Z"/>
      </g>
      <ellipse class="cls-2" cx="73.56" cy="35.89" rx=".88" ry=".89"/>
      <ellipse class="cls-2" cx="142.85" cy="35.89" rx=".88" ry=".89"/>
    </g>
    <g>
      <path class="cls-2" d="M104.17,62.41c-.81-.24-1.61-.56-2.37-.94-1.28-.63-2.47-1.44-3.54-2.38-.16-.14-.32-.29-.48-.43-.02,0-.04,0-.06,0-.48-.03-.94.56.29,1.48,1.11.82,3.19,1.84,6.16,2.28Z"/>
      <path class="cls-2" d="M92.51,58.1c-.51-.62-.99-1.27-1.45-1.94-.04-.02-.08-.03-.11-.04-.41-.11-1.67.23.3,2.44,1.78,2,5.37,4.71,9.64,5.89-1.41-.5-2.74-1.24-3.97-2.13-1.65-1.19-3.12-2.64-4.41-4.23Z"/>
      <path class="cls-2" d="M134.17,35.36c-3.78-8.05-9.68-9.96-11.96-10.39.6.49,1.1,1.02,1.63,1.67-.73-.64-1.51-1.22-2.45-1.79-8.42-4.91-22.42-4.14-28.02-.37-.84.56-.57.73-.35.78s2.07.4,3.58,1.37c.29.18.45.36.36.49-.22.29-.84.51-1.51.39-1.42-.26-2.56-1.45-2.23-.8,1.65,3.26,6.39,4.13,7.68,4.45,0,0,1,.76,3.25,1.86.35.92,1.13,2.2,2.82,3.37,1.52.23,2.66-.01,2.66-.01l-2.72-2.13c1.43.58,3.13,1.2,5.14,1.82,6.05,1.86,7.75,4.37,7.75,4.37-.07,2.44,1.43,5.29,1.48,5.41.02.05.04.04.04,0-.01-.37.47-1.51.45-2.28,0-.09-.01-.16-.02-.24,1.93,3.11,2.35,6.86,1.27,9.55-2.73,6.8-9.49.07-13.97,1.48,0,0,3.61,2.36,2.15,6.42-.17.47-.41.88-.69,1.25,0,0,0,0,0,0,1.12-.01,2.24-.13,3.36-.33l.97-.19c.32-.08.64-.16.97-.25l.48-.13.48-.15.96-.3-.91.41-.46.21-.47.18c-.31.12-.63.25-.94.36l-.96.31c-1.29.39-2.63.68-4,.81-.14.01-.33.02-.48.03,0,0,0,0,0,0-.1.08-.2.15-.29.23-.21.15-.43.3-.69.45,0,0,0,0,0,0h0c-.26.14-.52.26-.78.38-.24.1-.49.19-.73.28-.15.05-.3.1-.45.14-.09.03-.19.05-.28.08-.19.05-.38.1-.56.14-.16.04-.32.07-.47.1-.09.02-.18.03-.27.05-.06.01-.11.02-.17.03-.12.02-.23.04-.34.05-.09.01-.17.02-.25.03-.23.03-.43.05-.6.06-.16.01-.29.02-.37.02-.02,0-.04,0-.06,0-.03,0-.06,0-.07,0,0,0,0,0,0,0,.56.1,1.13.19,1.71.25.43.05.87.08,1.31.1.15,0,.29.01.44.02.92.03,1.85,0,2.78-.07.27-.02.53-.05.79-.08.4-.04.79-.1,1.19-.16,2.63-.42,5.21-1.27,7.49-2.53,0,0,0,0,0,0,0,0,.02-.01.03-.02.42-.23.82-.48,1.22-.73.13-.09.26-.17.39-.26.17-.12.34-.24.51-.36.82-.61,1.59-1.28,2.28-2.02.05-.06.1-.11.14-.17,9.59-11.27-1.57-21.38-9.95-23.31.07-.04.13-.08.2-.12,9.74,1.3,15.64,8.45,15.28,15.52.3-.78.61-1.74.89-2.89,1.08-4.41.82-8.32-.19-11.71,1.88-1.99,4.56-1.14,4.56-1.14ZM99.52,29.58c-.86-.12-1.25-.67-.68-1.02,1.38-.85-.79-2.92-3.53-3.97-.13-.05-.09-.11.05-.09,1.08.19,1.9.35,3.47,1.2,1.28.7,2.45,1.98,2.42,2.77-.03.8-.87,1.23-1.73,1.11ZM101.8,25.16s0,0,0,0c-.74-.46-2.53-.9-3.01-.95.94-.29,2.02.29,2.37-.35,0-.01.01-.02.02-.03.17-.33.54-.59,1.01-.68,1.32-.26,2.11.65,2.06,1.42-.27.54-.69.79-1.12.77.15-.15.24-.35.25-.57.02-.45-.33-.83-.77-.87.08.36.04.79-.11.84-.12.04-.46-.16-.68-.44-.07.12-.12.26-.12.41,0,.16.04.32.11.45ZM102.83,31.59c-.2-.12-.44-.31-.44-.31,1.08.05,2.09-.09,2.69-.68.53-.52,1.05-1.78-1.55-3.39-.2-.12-.99-.6-1.23-.73-.86-.48-.14-.48.85-.14,1.3.46,1.73.06,2.26-.46.35-.34.76-.47,1.31-.23,1.46.64,1.51,3.1.42,4.7-.87,1.28-2.94,1.49-4.31,1.24ZM115.27,33.75c-3.69-1.58-5.8-2.01-5.8-2.01,0,0,2.47.91,5.01,2.28-.84.31-1.57.68-2.19,1.12-.64-.73-2.97-2.58-4.6-2.99.63-.29,1.35-.79,1.89-1.64,2.58-.53,6.28.36,9,2.44-1.24.24-2.35.5-3.33.8ZM123.58,33.68l-.94-.78c-.33-.25-.66-.48-.98-.73l-1.02-.67c-.35-.21-.7-.41-1.05-.62-1.42-.78-2.93-1.41-4.49-1.86-1.54-.44-3.12-.72-4.71-.79.03-.23.05-.47.06-.72,1.65.06,3.28.35,4.85.83,1.6.49,3.14,1.18,4.58,2.03.35.22.71.44,1.06.67.34.24.69.48,1.02.73.32.26.65.52.97.79l.92.84c1.19,1.16,2.23,2.47,3.05,3.91-.97-1.33-2.09-2.55-3.32-3.62ZM130.92,34.49s-.98-3.05-4.1-6.18c0,0,3.39,2,5.15,5.95,0,0-.55-.04-1.05.23Z"/>
    </g>
  </g>
</svg>